<?xml version="1.0" encoding="UTF-8" standalone="no"?>
<!DOCTYPE svg PUBLIC "-//W3C//DTD SVG 1.1//EN"
 "http://www.w3.org/Graphics/SVG/1.1/DTD/svg11.dtd">
<!-- Generated by graphviz version 9.0.0 (20230911.1827)
 -->
<!-- Title: sfdsp::InterpolationStrategy Pages: 1 -->
<svg width="409pt" height="83pt"
 viewBox="0.00 0.00 409.25 82.50" xmlns="http://www.w3.org/2000/svg" xmlns:xlink="http://www.w3.org/1999/xlink">
<g id="graph0" class="graph" transform="scale(1 1) rotate(0) translate(4 78.5)">
<title>sfdsp::InterpolationStrategy</title>
<!-- Node1 -->
<g id="Node000001" class="node">
<title>Node1</title>
<g id="a_Node000001"><a xlink:title="Base class for interpolation strategies.">
<polygon fill="#999999" stroke="#666666" points="276.88,-74.5 143.12,-74.5 143.12,-55.25 276.88,-55.25 276.88,-74.5"/>
<text text-anchor="middle" x="210" y="-61" font-family="Helvetica,sans-Serif" font-size="10.00">sfdsp::InterpolationStrategy</text>
</a>
</g>
</g>
<!-- Node2 -->
<g id="Node000002" class="node">
<title>Node2</title>
<g id="a_Node000002"><a xlink:href="classsfdsp_1_1AllpassInterpolation.html" target="_top" xlink:title="Allpass interpolation strategy.">
<polygon fill="white" stroke="#666666" points="130,-19.25 0,-19.25 0,0 130,0 130,-19.25"/>
<text text-anchor="middle" x="65" y="-5.75" font-family="Helvetica,sans-Serif" font-size="10.00">sfdsp::AllpassInterpolation</text>
</a>
</g>
</g>
<!-- Node1&#45;&gt;Node2 -->
<g id="edge1_Node000001_Node000002" class="edge">
<title>Node1&#45;&gt;Node2</title>
<g id="a_edge1_Node000001_Node000002"><a xlink:title=" ">
<path fill="none" stroke="#63b8ff" d="M174.73,-50.92C148.41,-41.25 113.09,-28.29 89.72,-19.7"/>
<polygon fill="#63b8ff" stroke="#63b8ff" points="173.39,-54.16 183.98,-54.32 175.8,-47.59 173.39,-54.16"/>
</a>
</g>
</g>
<!-- Node3 -->
<g id="Node000003" class="node">
<title>Node3</title>
<g id="a_Node000003"><a xlink:href="classsfdsp_1_1LinearInterpolation.html" target="_top" xlink:title="Linear interpolation strategy.">
<polygon fill="white" stroke="#666666" points="272.38,-19.25 147.62,-19.25 147.62,0 272.38,0 272.38,-19.25"/>
<text text-anchor="middle" x="210" y="-5.75" font-family="Helvetica,sans-Serif" font-size="10.00">sfdsp::LinearInterpolation</text>
</a>
</g>
</g>
<!-- Node1&#45;&gt;Node3 -->
<g id="edge2_Node000001_Node000003" class="edge">
<title>Node1&#45;&gt;Node3</title>
<g id="a_edge2_Node000001_Node000003"><a xlink:title=" ">
<path fill="none" stroke="#63b8ff" d="M210,-43.63C210,-35.34 210,-26.17 210,-19.61"/>
<polygon fill="#63b8ff" stroke="#63b8ff" points="206.5,-43.57 210,-53.57 213.5,-43.57 206.5,-43.57"/>
</a>
</g>
</g>
<!-- Node4 -->
<g id="Node000004" class="node">
<title>Node4</title>
<g id="a_Node000004"><a xlink:href="classsfdsp_1_1NoInterpolation.html" target="_top" xlink:title="No interpolation strategy.">
<polygon fill="white" stroke="#666666" points="401.25,-19.25 290.75,-19.25 290.75,0 401.25,0 401.25,-19.25"/>
<text text-anchor="middle" x="346" y="-5.75" font-family="Helvetica,sans-Serif" font-size="10.00">sfdsp::NoInterpolation</text>
</a>
</g>
</g>
<!-- Node1&#45;&gt;Node4 -->
<g id="edge3_Node000001_Node000004" class="edge">
<title>Node1&#45;&gt;Node4</title>
<g id="a_edge3_Node000001_Node000004"><a xlink:title=" ">
<path fill="none" stroke="#63b8ff" d="M243.74,-50.66C268.36,-41.02 301.09,-28.21 322.82,-19.7"/>
<polygon fill="#63b8ff" stroke="#63b8ff" points="242.52,-47.38 234.48,-54.29 245.07,-53.9 242.52,-47.38"/>
</a>
</g>
</g>
</g>
</svg>
