<?xml version="1.0" encoding="UTF-8" standalone="no"?>
<!DOCTYPE svg PUBLIC "-//W3C//DTD SVG 1.1//EN"
 "http://www.w3.org/Graphics/SVG/1.1/DTD/svg11.dtd">
<!-- Generated by graphviz version 9.0.0 (20230911.1827)
 -->
<!-- Title: Graphical Class Hierarchy Pages: 1 -->
<svg width="308pt" height="101pt"
 viewBox="0.00 0.00 307.75 101.25" xmlns="http://www.w3.org/2000/svg" xmlns:xlink="http://www.w3.org/1999/xlink">
<g id="graph0" class="graph" transform="scale(1 1) rotate(0) translate(4 97.25)">
<title>Graphical Class Hierarchy</title>
<!-- Node0 -->
<g id="Node000000" class="node">
<title>Node0</title>
<g id="a_Node000000"><a xlink:href="classsfdsp_1_1InterpolationStrategy.html" target="_top" xlink:title="Base class for interpolation strategies.">
<polygon fill="white" stroke="#666666" points="133.75,-56.25 0,-56.25 0,-37 133.75,-37 133.75,-56.25"/>
<text text-anchor="middle" x="66.88" y="-42.75" font-family="Helvetica,sans-Serif" font-size="10.00">sfdsp::InterpolationStrategy</text>
</a>
</g>
</g>
<!-- Node1 -->
<g id="Node000001" class="node">
<title>Node1</title>
<g id="a_Node000001"><a xlink:href="classsfdsp_1_1AllpassInterpolation.html" target="_top" xlink:title="Allpass interpolation strategy.">
<polygon fill="white" stroke="#666666" points="299.75,-93.25 169.75,-93.25 169.75,-74 299.75,-74 299.75,-93.25"/>
<text text-anchor="middle" x="234.75" y="-79.75" font-family="Helvetica,sans-Serif" font-size="10.00">sfdsp::AllpassInterpolation</text>
</a>
</g>
</g>
<!-- Node0&#45;&gt;Node1 -->
<g id="edge6_Node000000_Node000001" class="edge">
<title>Node0&#45;&gt;Node1</title>
<g id="a_edge6_Node000000_Node000001"><a xlink:title=" ">
<path fill="none" stroke="#63b8ff" d="M124.22,-59.19C145.16,-63.87 168.65,-69.1 188.48,-73.53"/>
<polygon fill="#63b8ff" stroke="#63b8ff" points="125.2,-55.83 114.68,-57.06 123.68,-62.66 125.2,-55.83"/>
</a>
</g>
</g>
<!-- Node2 -->
<g id="Node000002" class="node">
<title>Node2</title>
<g id="a_Node000002"><a xlink:href="classsfdsp_1_1LinearInterpolation.html" target="_top" xlink:title="Linear interpolation strategy.">
<polygon fill="white" stroke="#666666" points="297.12,-56.25 172.38,-56.25 172.38,-37 297.12,-37 297.12,-56.25"/>
<text text-anchor="middle" x="234.75" y="-42.75" font-family="Helvetica,sans-Serif" font-size="10.00">sfdsp::LinearInterpolation</text>
</a>
</g>
</g>
<!-- Node0&#45;&gt;Node2 -->
<g id="edge7_Node000000_Node000002" class="edge">
<title>Node0&#45;&gt;Node2</title>
<g id="a_edge7_Node000000_Node000002"><a xlink:title=" ">
<path fill="none" stroke="#63b8ff" d="M145.21,-46.62C154.19,-46.62 163.25,-46.62 171.99,-46.62"/>
<polygon fill="#63b8ff" stroke="#63b8ff" points="145.42,-43.13 135.42,-46.63 145.42,-50.13 145.42,-43.13"/>
</a>
</g>
</g>
<!-- Node3 -->
<g id="Node000003" class="node">
<title>Node3</title>
<g id="a_Node000003"><a xlink:href="classsfdsp_1_1NoInterpolation.html" target="_top" xlink:title="No interpolation strategy.">
<polygon fill="white" stroke="#666666" points="290,-19.25 179.5,-19.25 179.5,0 290,0 290,-19.25"/>
<text text-anchor="middle" x="234.75" y="-5.75" font-family="Helvetica,sans-Serif" font-size="10.00">sfdsp::NoInterpolation</text>
</a>
</g>
</g>
<!-- Node0&#45;&gt;Node3 -->
<g id="edge8_Node000000_Node000003" class="edge">
<title>Node0&#45;&gt;Node3</title>
<g id="a_edge8_Node000000_Node000003"><a xlink:title=" ">
<path fill="none" stroke="#63b8ff" d="M124.22,-34.06C145.16,-29.38 168.65,-24.15 188.48,-19.72"/>
<polygon fill="#63b8ff" stroke="#63b8ff" points="123.68,-30.59 114.68,-36.19 125.2,-37.42 123.68,-30.59"/>
</a>
</g>
</g>
</g>
</svg>
