<?xml version="1.0" encoding="UTF-8" standalone="no"?>
<!DOCTYPE svg PUBLIC "-//W3C//DTD SVG 1.1//EN"
 "http://www.w3.org/Graphics/SVG/1.1/DTD/svg11.dtd">
<!-- Generated by graphviz version 9.0.0 (20230911.1827)
 -->
<!-- Title: Graphical Class Hierarchy Pages: 1 -->
<svg width="215pt" height="175pt"
 viewBox="0.00 0.00 214.75 175.25" xmlns="http://www.w3.org/2000/svg" xmlns:xlink="http://www.w3.org/1999/xlink">
<g id="graph0" class="graph" transform="scale(1 1) rotate(0) translate(4 171.25)">
<title>Graphical Class Hierarchy</title>
<!-- Node0 -->
<g id="Node000000" class="node">
<title>Node0</title>
<g id="a_Node000000"><a xlink:href="classsfdsp_1_1Filter.html" target="_top" xlink:title="Base class for filters.">
<polygon fill="white" stroke="#666666" points="66.25,-93.25 0,-93.25 0,-74 66.25,-74 66.25,-93.25"/>
<text text-anchor="middle" x="33.12" y="-79.75" font-family="Helvetica,sans-Serif" font-size="10.00">sfdsp::Filter</text>
</a>
</g>
</g>
<!-- Node1 -->
<g id="Node000001" class="node">
<title>Node1</title>
<g id="a_Node000001"><a xlink:href="classsfdsp_1_1Biquad.html" target="_top" xlink:title="Implements a simple biquad filter with differential equation y(n) = b0*x(n) + b1*x(n&#45;1) + b2*x(n&#45;2) &#45;...">
<polygon fill="white" stroke="#666666" points="191.75,-167.25 117.25,-167.25 117.25,-148 191.75,-148 191.75,-167.25"/>
<text text-anchor="middle" x="154.5" y="-153.75" font-family="Helvetica,sans-Serif" font-size="10.00">sfdsp::Biquad</text>
</a>
</g>
</g>
<!-- Node0&#45;&gt;Node1 -->
<g id="edge1_Node000000_Node000001" class="edge">
<title>Node0&#45;&gt;Node1</title>
<g id="a_edge1_Node000000_Node000001"><a xlink:title=" ">
<path fill="none" stroke="#63b8ff" d="M51.98,-101.29C65.02,-113.4 83.61,-129.13 102.25,-139.62 107.59,-142.63 113.52,-145.27 119.4,-147.54"/>
<polygon fill="#63b8ff" stroke="#63b8ff" points="54.65,-99 45,-94.63 49.82,-104.06 54.65,-99"/>
</a>
</g>
</g>
<!-- Node2 -->
<g id="Node000002" class="node">
<title>Node2</title>
<g id="a_Node000002"><a xlink:href="classsfdsp_1_1OnePoleFilter.html" target="_top" xlink:title="Implements a simple one pole filter with differential equation y(n) = b0*x(n) &#45; a1*y(n&#45;1)">
<polygon fill="white" stroke="#666666" points="206.38,-130.25 102.62,-130.25 102.62,-111 206.38,-111 206.38,-130.25"/>
<text text-anchor="middle" x="154.5" y="-116.75" font-family="Helvetica,sans-Serif" font-size="10.00">sfdsp::OnePoleFilter</text>
</a>
</g>
</g>
<!-- Node0&#45;&gt;Node2 -->
<g id="edge2_Node000000_Node000002" class="edge">
<title>Node0&#45;&gt;Node2</title>
<g id="a_edge2_Node000000_Node000002"><a xlink:title=" ">
<path fill="none" stroke="#63b8ff" d="M77.4,-97.04C91.76,-101.49 107.5,-106.37 120.92,-110.53"/>
<polygon fill="#63b8ff" stroke="#63b8ff" points="78.78,-93.8 68.19,-94.18 76.71,-100.49 78.78,-93.8"/>
</a>
</g>
</g>
<!-- Node3 -->
<g id="Node000003" class="node">
<title>Node3</title>
<g id="a_Node000003"><a xlink:href="classsfdsp_1_1OneZeroFilter.html" target="_top" xlink:title="Implements a simple one zero filter with differential equation y(n) = b0*x(n) + b1*x(n&#45;1)">
<polygon fill="white" stroke="#666666" points="206.38,-93.25 102.62,-93.25 102.62,-74 206.38,-74 206.38,-93.25"/>
<text text-anchor="middle" x="154.5" y="-79.75" font-family="Helvetica,sans-Serif" font-size="10.00">sfdsp::OneZeroFilter</text>
</a>
</g>
</g>
<!-- Node0&#45;&gt;Node3 -->
<g id="edge3_Node000000_Node000003" class="edge">
<title>Node0&#45;&gt;Node3</title>
<g id="a_edge3_Node000000_Node000003"><a xlink:title=" ">
<path fill="none" stroke="#63b8ff" d="M78.05,-83.62C86.02,-83.62 94.38,-83.62 102.53,-83.62"/>
<polygon fill="#63b8ff" stroke="#63b8ff" points="78.26,-80.13 68.26,-83.63 78.26,-87.13 78.26,-80.13"/>
</a>
</g>
</g>
<!-- Node4 -->
<g id="Node000004" class="node">
<title>Node4</title>
<g id="a_Node000004"><a xlink:href="classsfdsp_1_1TwoPoleFilter.html" target="_top" xlink:title="Implements a simple two pole filter with differential equation y(n) = b0*x(n) &#45; a1*y(n&#45;1) &#45; a2*y(n&#45;2)">
<polygon fill="white" stroke="#666666" points="206.75,-56.25 102.25,-56.25 102.25,-37 206.75,-37 206.75,-56.25"/>
<text text-anchor="middle" x="154.5" y="-42.75" font-family="Helvetica,sans-Serif" font-size="10.00">sfdsp::TwoPoleFilter</text>
</a>
</g>
</g>
<!-- Node0&#45;&gt;Node4 -->
<g id="edge4_Node000000_Node000004" class="edge">
<title>Node0&#45;&gt;Node4</title>
<g id="a_edge4_Node000000_Node000004"><a xlink:title=" ">
<path fill="none" stroke="#63b8ff" d="M77.4,-70.21C91.76,-65.76 107.5,-60.88 120.92,-56.72"/>
<polygon fill="#63b8ff" stroke="#63b8ff" points="76.71,-66.76 68.19,-73.07 78.78,-73.45 76.71,-66.76"/>
</a>
</g>
</g>
<!-- Node5 -->
<g id="Node000005" class="node">
<title>Node5</title>
<g id="a_Node000005"><a xlink:href="classsfdsp_1_1TwoZeroFilter.html" target="_top" xlink:title="Implements a simple two zero filter with differential equation .">
<polygon fill="white" stroke="#666666" points="206.75,-19.25 102.25,-19.25 102.25,0 206.75,0 206.75,-19.25"/>
<text text-anchor="middle" x="154.5" y="-5.75" font-family="Helvetica,sans-Serif" font-size="10.00">sfdsp::TwoZeroFilter</text>
</a>
</g>
</g>
<!-- Node0&#45;&gt;Node5 -->
<g id="edge5_Node000000_Node000005" class="edge">
<title>Node0&#45;&gt;Node5</title>
<g id="a_edge5_Node000000_Node000005"><a xlink:title=" ">
<path fill="none" stroke="#63b8ff" d="M51.98,-65.96C65.02,-53.85 83.61,-38.12 102.25,-27.62 107.59,-24.62 113.52,-21.98 119.4,-19.71"/>
<polygon fill="#63b8ff" stroke="#63b8ff" points="49.82,-63.19 45,-72.62 54.65,-68.25 49.82,-63.19"/>
</a>
</g>
</g>
</g>
</svg>
